<svg width="211" height="211" viewBox="0 0 211 211" fill="none" xmlns="http://www.w3.org/2000/svg">
<g clip-path="url(#clip0_280_139)">
<path d="M197.812 22.5117L188.488 13.1875L13.1875 188.488L22.5117 197.812L35.6992 184.625H171.438C174.934 184.62 178.285 183.229 180.757 180.757C183.229 178.285 184.62 174.934 184.625 171.438V35.6992L197.812 22.5117ZM171.438 171.438H48.8867L100.271 120.052L115.956 135.737C118.429 138.21 121.784 139.599 125.281 139.599C128.779 139.599 132.133 138.21 134.606 135.737L145.062 125.281L171.438 151.638V171.438ZM171.438 132.984L154.387 115.933C151.914 113.46 148.56 112.071 145.062 112.071C141.565 112.071 138.211 113.46 135.738 115.933L125.281 126.39L109.608 110.716L171.438 48.8867V132.984Z" fill="#40FF5E"/>
<path d="M39.5625 145.062V125.281L72.5312 92.3349L81.5864 101.39L90.9225 92.0534L81.8561 82.987C79.383 80.5139 76.0287 79.1245 72.5312 79.1245C69.0338 79.1245 65.6795 80.5139 63.2064 82.987L39.5625 106.631V39.5625H145.062V26.375H39.5625C36.066 26.3785 32.7138 27.769 30.2414 30.2414C27.769 32.7138 26.3785 36.066 26.375 39.5625V145.062H39.5625Z" fill="#40FF5E"/>
</g>
<defs>
<clipPath id="clip0_280_139">
<rect width="211" height="211" fill="white"/>
</clipPath>
</defs>
</svg>
